<svg width="16" height="16" viewBox="0 0 16 16" fill="none" xmlns="http://www.w3.org/2000/svg">
<g clip-path="url(#clip0_5_31)">
<path d="M6.00001 0.5C6.00001 0.367392 6.05269 0.240215 6.14646 0.146447C6.24023 0.0526784 6.36741 0 6.50001 0L9.50001 0C9.63262 0 9.7598 0.0526784 9.85357 0.146447C9.94734 0.240215 10 0.367392 10 0.5C10 0.632608 9.94734 0.759785 9.85357 0.853553C9.7598 0.947322 9.63262 1 9.50001 1H9.00001V2.07C10.3618 2.26658 11.6355 2.86007 12.662 3.77633C13.6884 4.6926 14.4221 5.89101 14.7714 7.22186C15.1207 8.5527 15.0701 9.95697 14.626 11.2592C14.1818 12.5615 13.3637 13.704 12.274 14.544L12.875 15.146C12.9689 15.2398 13.0217 15.367 13.0218 15.4996C13.0219 15.6323 12.9693 15.7596 12.8755 15.8535C12.7818 15.9474 12.6545 16.0002 12.5219 16.0003C12.3892 16.0004 12.2619 15.9478 12.168 15.854L11.422 15.108C10.377 15.6946 9.1984 16.0018 8.00001 16C6.80163 16.0018 5.62303 15.6946 4.57801 15.108L3.83201 15.854C3.78553 15.9004 3.73035 15.9372 3.66964 15.9623C3.60892 15.9874 3.54386 16.0003 3.47816 16.0003C3.41246 16.0002 3.34742 15.9872 3.28674 15.9621C3.22606 15.9369 3.17094 15.9 3.12451 15.8535C3.07809 15.807 3.04128 15.7518 3.01618 15.6911C2.99108 15.6304 2.97819 15.5653 2.97824 15.4996C2.97833 15.367 3.03113 15.2398 3.12501 15.146L3.72701 14.544C2.6373 13.704 1.81924 12.5616 1.37502 11.2594C0.9308 9.95726 0.880119 8.55306 1.22931 7.22224C1.57849 5.89143 2.31207 4.693 3.33839 3.77667C4.36472 2.86034 5.63829 2.26673 7.00001 2.07V1H6.50001C6.36741 1 6.24023 0.947322 6.14646 0.853553C6.05269 0.759785 6.00001 0.632608 6.00001 0.5ZM8.50001 5.5C8.50001 5.36739 8.44734 5.24021 8.35357 5.14645C8.2598 5.05268 8.13262 5 8.00001 5C7.86741 5 7.74023 5.05268 7.64646 5.14645C7.55269 5.24021 7.50001 5.36739 7.50001 5.5V8.862L6.07101 11.242C6.00272 11.3558 5.98242 11.492 6.01459 11.6208C6.04675 11.7495 6.12874 11.8602 6.24251 11.9285C6.35629 11.9968 6.49254 12.0171 6.62128 11.9849C6.75003 11.9528 6.86072 11.8708 6.92901 11.757L8.42901 9.257C8.47551 9.17934 8.50004 9.09051 8.50001 9V5.5ZM0.860014 5.387C0.601273 5.16194 0.391603 4.88605 0.244042 4.57649C0.0964816 4.26693 0.0141855 3.93032 0.00227209 3.5876C-0.00964133 3.24488 0.0490827 2.90337 0.174792 2.58431C0.300502 2.26525 0.490508 1.97547 0.732996 1.73298C0.975484 1.49049 1.26527 1.30049 1.58432 1.17478C1.90338 1.04907 2.24489 0.990345 2.58761 1.00226C2.93034 1.01417 3.26694 1.09647 3.5765 1.24403C3.88606 1.39159 4.16195 1.60126 4.38701 1.86C2.86696 2.63175 1.63176 3.86695 0.860014 5.387ZM11.613 1.86C11.8381 1.60126 12.114 1.39159 12.4235 1.24403C12.7331 1.09647 13.0697 1.01417 13.4124 1.00226C13.7551 0.990345 14.0966 1.04907 14.4157 1.17478C14.7348 1.30049 15.0245 1.49049 15.267 1.73298C15.5095 1.97547 15.6995 2.26525 15.8252 2.58431C15.9509 2.90337 16.0097 3.24488 15.9978 3.5876C15.9858 3.93032 15.9035 4.26693 15.756 4.57649C15.6084 4.88605 15.3988 5.16194 15.14 5.387C14.3683 3.86695 13.1331 2.63175 11.613 1.86Z" fill="#FF6767"/>
</g>
<defs>
<clipPath id="clip0_5_31">
<rect width="16" height="16" fill="white"/>
</clipPath>
</defs>
</svg>
