<svg width="35" height="35" viewBox="0 0 35 35" fill="none" xmlns="http://www.w3.org/2000/svg">
<path d="M7.65625 0C7.94633 0 8.22453 0.115234 8.42965 0.320352C8.63477 0.52547 8.75 0.803669 8.75 1.09375V2.1875H26.25V1.09375C26.25 0.803669 26.3652 0.52547 26.5704 0.320352C26.7755 0.115234 27.0537 0 27.3438 0C27.6338 0 27.912 0.115234 28.1171 0.320352C28.3223 0.52547 28.4375 0.803669 28.4375 1.09375V2.1875H30.625C31.7853 2.1875 32.8981 2.64844 33.7186 3.46891C34.5391 4.28938 35 5.40218 35 6.5625V30.625C35 31.7853 34.5391 32.8981 33.7186 33.7186C32.8981 34.5391 31.7853 35 30.625 35H4.375C3.21468 35 2.10188 34.5391 1.28141 33.7186C0.460936 32.8981 0 31.7853 0 30.625V6.5625C0 5.40218 0.460936 4.28938 1.28141 3.46891C2.10188 2.64844 3.21468 2.1875 4.375 2.1875H6.5625V1.09375C6.5625 0.803669 6.67773 0.52547 6.88285 0.320352C7.08797 0.115234 7.36617 0 7.65625 0V0ZM29.4306 6.5625H5.56719C4.91094 6.5625 4.375 7.0525 4.375 7.65625V9.84375C4.375 10.4475 4.90875 10.9375 5.56719 10.9375H29.4328C30.0891 10.9375 30.625 10.4475 30.625 9.84375V7.65625C30.625 7.0525 30.0913 6.5625 29.4306 6.5625ZM24.5306 17.1828C24.6572 17.1889 24.7838 17.1693 24.9026 17.1251C25.0214 17.0808 25.1299 17.0129 25.2217 16.9255C25.3135 16.8381 25.3865 16.7329 25.4365 16.6164C25.4864 16.4999 25.5121 16.3744 25.5121 16.2477C25.5121 16.1209 25.4864 15.9955 25.4365 15.8789C25.3865 15.7624 25.3135 15.6573 25.2217 15.5698C25.1299 15.4824 25.0214 15.4145 24.9026 15.3703C24.7838 15.326 24.6572 15.3064 24.5306 15.3125C24.407 15.3116 24.2844 15.3354 24.17 15.3824C24.0556 15.4293 23.9517 15.4986 23.8643 15.5862C23.777 15.6737 23.7079 15.7778 23.6612 15.8923C23.6145 16.0068 23.591 16.1295 23.5922 16.2531C23.5922 16.7738 24.0122 17.1828 24.5328 17.1828H24.5306ZM25.2678 18.4144H23.7978V27.3941H25.2678V18.4144ZM10.2463 27.3941V22.3628H15.1922V21.0284H10.2463V17.0647H15.6362V15.7303H8.75V27.3941H10.2463ZM17.4562 27.3941H18.935V21.8312C18.935 20.6194 19.4316 19.6284 21.0197 19.6284C21.2931 19.6284 21.5841 19.6372 21.7394 19.6612V18.3203C21.5554 18.2927 21.3698 18.278 21.1838 18.2766C19.9106 18.2766 19.2347 18.9766 18.97 19.5169H18.9263V18.4144H17.4562V27.3941Z" fill="#FF6767"/>
</svg>
