<svg width="35" height="35" viewBox="0 0 35 35" fill="none" xmlns="http://www.w3.org/2000/svg">
<g clip-path="url(#clip0_6_10)">
<path d="M17.5 32.8125C13.4389 32.8125 9.54408 31.1992 6.67243 28.3276C3.80078 25.4559 2.1875 21.5611 2.1875 17.5C2.1875 13.4389 3.80078 9.54408 6.67243 6.67243C9.54408 3.80078 13.4389 2.1875 17.5 2.1875C21.5611 2.1875 25.4559 3.80078 28.3276 6.67243C31.1992 9.54408 32.8125 13.4389 32.8125 17.5C32.8125 21.5611 31.1992 25.4559 28.3276 28.3276C25.4559 31.1992 21.5611 32.8125 17.5 32.8125ZM17.5 35C22.1413 35 26.5925 33.1563 29.8744 29.8744C33.1563 26.5925 35 22.1413 35 17.5C35 12.8587 33.1563 8.40752 29.8744 5.12563C26.5925 1.84374 22.1413 0 17.5 0C12.8587 0 8.40752 1.84374 5.12563 5.12563C1.84374 8.40752 0 12.8587 0 17.5C0 22.1413 1.84374 26.5925 5.12563 29.8744C8.40752 33.1563 12.8587 35 17.5 35Z" fill="#FF6767"/>
<path d="M17.5 28.4375C14.5992 28.4375 11.8172 27.2852 9.76602 25.234C7.71484 23.1828 6.5625 20.4008 6.5625 17.5C6.5625 14.5992 7.71484 11.8172 9.76602 9.76602C11.8172 7.71484 14.5992 6.5625 17.5 6.5625C20.4008 6.5625 23.1828 7.71484 25.234 9.76602C27.2852 11.8172 28.4375 14.5992 28.4375 17.5C28.4375 20.4008 27.2852 23.1828 25.234 25.234C23.1828 27.2852 20.4008 28.4375 17.5 28.4375ZM17.5 30.625C19.2236 30.625 20.9303 30.2855 22.5227 29.6259C24.1151 28.9663 25.562 27.9995 26.7808 26.7808C27.9995 25.562 28.9663 24.1151 29.6259 22.5227C30.2855 20.9303 30.625 19.2236 30.625 17.5C30.625 15.7764 30.2855 14.0697 29.6259 12.4773C28.9663 10.8849 27.9995 9.43799 26.7808 8.21922C25.562 7.00045 24.1151 6.03367 22.5227 5.37408C20.9303 4.71449 19.2236 4.375 17.5 4.375C14.019 4.375 10.6806 5.75781 8.21922 8.21922C5.75781 10.6806 4.375 14.019 4.375 17.5C4.375 20.981 5.75781 24.3194 8.21922 26.7808C10.6806 29.2422 14.019 30.625 17.5 30.625Z" fill="#FF6767"/>
<path d="M17.5 24.0625C15.7595 24.0625 14.0903 23.3711 12.8596 22.1404C11.6289 20.9097 10.9375 19.2405 10.9375 17.5C10.9375 15.7595 11.6289 14.0903 12.8596 12.8596C14.0903 11.6289 15.7595 10.9375 17.5 10.9375C19.2405 10.9375 20.9097 11.6289 22.1404 12.8596C23.3711 14.0903 24.0625 15.7595 24.0625 17.5C24.0625 19.2405 23.3711 20.9097 22.1404 22.1404C20.9097 23.3711 19.2405 24.0625 17.5 24.0625ZM17.5 26.25C19.8206 26.25 22.0462 25.3281 23.6872 23.6872C25.3281 22.0462 26.25 19.8206 26.25 17.5C26.25 15.1794 25.3281 12.9538 23.6872 11.3128C22.0462 9.67187 19.8206 8.75 17.5 8.75C15.1794 8.75 12.9538 9.67187 11.3128 11.3128C9.67187 12.9538 8.75 15.1794 8.75 17.5C8.75 19.8206 9.67187 22.0462 11.3128 23.6872C12.9538 25.3281 15.1794 26.25 17.5 26.25Z" fill="#FF6767"/>
<path d="M20.7812 17.5C20.7812 18.3702 20.4355 19.2048 19.8202 19.8202C19.2048 20.4355 18.3702 20.7812 17.5 20.7812C16.6298 20.7812 15.7952 20.4355 15.1798 19.8202C14.5645 19.2048 14.2188 18.3702 14.2188 17.5C14.2188 16.6298 14.5645 15.7952 15.1798 15.1798C15.7952 14.5645 16.6298 14.2188 17.5 14.2188C18.3702 14.2188 19.2048 14.5645 19.8202 15.1798C20.4355 15.7952 20.7812 16.6298 20.7812 17.5Z" fill="#FF6767"/>
</g>
<defs>
<clipPath id="clip0_6_10">
<rect width="35" height="35" fill="white"/>
</clipPath>
</defs>
</svg>
